<?xml version="1.0" encoding="utf-8"?>
<!-- Uploaded to: SVG Repo, www.svgrepo.com, Generator: SVG Repo Mixer Tools -->
<svg fill="#000000" width="20px" height="20px" viewBox="0 0 32 32" version="1.1" xmlns="http://www.w3.org/2000/svg">
<title>address-book</title>
<path d="M27.006 10.753c0.69-0 1.25-0.56 1.25-1.25v-5.006c-0-0.69-0.56-1.25-1.25-1.25h-0c-0.302 0.005-0.576 0.118-0.787 0.302l0.001-0.001c-0.227-1.586-1.574-2.793-3.204-2.797h-16.021c-1.794 0.002-3.248 1.456-3.25 3.25v24c0.002 1.794 1.456 3.248 3.25 3.25h16.021c1.619-0.004 2.959-1.193 3.199-2.746l0.002-0.018c0.21 0.184 0.486 0.298 0.788 0.303h0.001c0.69-0.001 1.249-0.56 1.25-1.25v-5.078c-0.001-0.69-0.56-1.249-1.25-1.25h-0c-0.282 0.006-0.539 0.107-0.743 0.272l0.002-0.002v-2c0.201 0.163 0.458 0.264 0.739 0.27l0.001 0c0.69-0.001 1.249-0.56 1.25-1.25v-5c-0-0.69-0.56-1.25-1.25-1.25h-0c-0.282 0.006-0.539 0.107-0.743 0.271l0.002-0.002v-2.036c0.201 0.163 0.458 0.263 0.739 0.27l0.001 0zM23.766 28c-0.006 0.412-0.338 0.744-0.749 0.75h-16.021c-0.412-0.006-0.744-0.338-0.75-0.749v-24.001c0.006-0.412 0.338-0.744 0.749-0.75h16.021c0.412 0.006 0.744 0.338 0.75 0.749v0.001zM15.005 16.43c2.376 0 4.302-1.926 4.302-4.302s-1.926-4.302-4.302-4.302c-2.376 0-4.302 1.926-4.302 4.302 0 0 0 0 0 0v0c0.003 2.375 1.927 4.299 4.302 4.302h0zM15.005 10.326c0.995 0 1.802 0.807 1.802 1.802s-0.807 1.802-1.802 1.802c-0.995 0-1.802-0.807-1.802-1.802 0 0 0 0 0-0v0c0.001-0.995 0.807-1.8 1.802-1.802h0zM15.005 16.879c-3.498 0.015-6.422 2.456-7.175 5.728l-0.010 0.050c-0.019 0.081-0.030 0.175-0.030 0.271 0 0.691 0.56 1.25 1.25 1.25 0.598 0 1.098-0.419 1.221-0.98l0.002-0.008c0.496-2.196 2.431-3.811 4.742-3.811s4.247 1.616 4.736 3.78l0.006 0.032c0.127 0.565 0.624 0.982 1.219 0.982h0c0.096-0 0.189-0.011 0.278-0.031l-0.008 0.002c0.566-0.126 0.982-0.624 0.982-1.219 0-0.095-0.011-0.188-0.031-0.277l0.002 0.008c-0.764-3.321-3.687-5.762-7.183-5.777h-0.002z"></path>
</svg>