<?xml version="1.0" encoding="iso-8859-1"?>
<!-- Uploaded to: SVG Repo, www.svgrepo.com, Generator: SVG Repo Mixer Tools -->
<!DOCTYPE svg PUBLIC "-//W3C//DTD SVG 1.1//EN" "http://www.w3.org/Graphics/SVG/1.1/DTD/svg11.dtd">
<svg fill="#000000" height="15px" width="15px" version="1.1" id="Capa_1" xmlns="http://www.w3.org/2000/svg" xmlns:xlink="http://www.w3.org/1999/xlink" 
	 viewBox="0 0 444.202 444.202" xml:space="preserve">
<path d="M405.939,80.996h-94.071c3.971-7.641,6.229-16.309,6.229-25.498C318.097,24.896,293.2,0,262.599,0
	c-15.963,0-30.364,6.784-40.498,17.608C211.967,6.784,197.566,0,181.603,0c-30.602,0-55.498,24.896-55.498,55.498
	c0,9.189,2.259,17.857,6.229,25.498H38.263c-8.284,0-15,6.716-15,15v62.889c0,7.494,5.501,13.687,12.682,14.803v255.515
	c0,8.284,6.716,15,15,15h342.311c8.284,0,15-6.716,15-15V173.688c7.181-1.116,12.682-7.309,12.682-14.803V95.996
	C420.939,87.712,414.223,80.996,405.939,80.996z M390.939,143.885H232.101v-32.889h158.837V143.885z M262.599,30
	c14.06,0,25.498,11.438,25.498,25.498s-11.438,25.498-25.498,25.498h-25.498V55.498C237.101,41.438,248.539,30,262.599,30z
	 M156.105,55.498c0-14.06,11.438-25.498,25.498-25.498s25.498,11.438,25.498,25.498v25.498h-25.498
	C167.544,80.996,156.105,69.558,156.105,55.498z M53.263,110.996h158.838v32.889H53.263V110.996z M65.946,173.885h146.156v240.317
	H65.946V173.885z M378.257,414.202H232.101V173.885h146.155V414.202z"/>
</svg>